<svg version="1.2" xmlns="http://www.w3.org/2000/svg" viewBox="0 0 75 75" width="75" height="75">
	<title>logo</title>
	<style>
		.s0 { fill: #04a7d7 } 
	</style>
	<g id="Layer 1">
		<path class="s0" d="m41.12 0h-41.12v75h75v-75zm30.88 3v30.88l-30.88-30.88zm-18 30.88l-12.88-12.88h12.88zm-0.62 3.62l-15.88 15.88-15.88-15.88 15.88-15.88zm-50.38-34.5h30.88l-30.88 30.88zm0 69v-30.88l30.88 30.88zm69 0h-30.88l30.88-30.88zm-34.5-68.38l14.38 14.38h-28.76zm-16.5 30.26v-12.88h12.88zm-3-10.76v28.76l-14.38-14.38zm3 18l12.88 12.88h-12.88zm16.5 30.26l-14.38-14.38h28.76zm16.5-30.26v12.88h-12.88zm3 10.76v-28.76l14.38 14.38z"/>
	</g>
</svg>
